# xmcd
#
# Track frame offsets:
#	150
#	12660
#	24689
#	36799
#	48149
#	59937
#	71341
#	84793
#	97779
#	110298
#	121377
#	134016
#	144393
#	157826
#	170390
#	183514
#	196729
#	208913
#
# Disc length: 2951 seconds
#
# Revision: 2
# Processed by: cddbd v1.5.2PL0 Copyright (c) Steve Scherf et al.
# Submitted via: EasyCDDAExtractor 8.2.3.1
#
DISCID=f40b8512
DTITLE=Cliff Bruner and His Texas Wanderers - Cliff Bruner and His Texas Wanderers
DTITLE=5
DYEAR=194
DGENRE=Hillbilly
TTITLE0=Lucille From Mobile
TTITLE1=You Were All The World To Me
TTITLE2=You Took Advantage Of A Lonely Heart
TTITLE3=Baby What You Doing To Me
TTITLE4=Santa Fe Waltz
TTITLE5=Rio Grande Polka
TTITLE6=UnFaithful One
TTITLE7=San Antonio Blues
TTITLE8=Out Of Business
TTITLE9=Mr  Postman
TTITLE10=Ouch
TTITLE11=You Took Advantage Of A Lonely Heart
TTITLE12=You Better Do Better Baby
TTITLE13=Hard Luck Blues
TTITLE14=Sweetest Little Danny
TTITLE15=I Was A Gambler In Texas
TTITLE16=You've Got To Give Me What's Mine
TTITLE17=I'm Dying By Pieces Dear
EXTD=
EXTT0=
EXTT1=
EXTT2=
EXTT3=
EXTT4=
EXTT5=
EXTT6=
EXTT7=
EXTT8=
EXTT9=
EXTT10=
EXTT11=
EXTT12=
EXTT13=
EXTT14=
EXTT15=
EXTT16=
EXTT17=
PLAYORDER=
